<?xml version="1.0" encoding="UTF-8"?>
<!DOCTYPE svg PUBLIC "-//W3C//DTD SVG 1.1//EN" "http://www.w3.org/Graphics/SVG/1.1/DTD/svg11.dtd">
<!-- Creator: CorelDRAW -->
<svg xmlns="http://www.w3.org/2000/svg" xml:space="preserve" width="0px" height="0px" style="shape-rendering:geometricPrecision; text-rendering:geometricPrecision; image-rendering:optimizeQuality; fill-rule:evenodd; clip-rule:evenodd"
viewBox="0 0 170 13"
 xmlns:xlink="http://www.w3.org/1999/xlink">
 <defs>
  <style type="text/css">
   <![CDATA[
    .fil0 {fill:#ffffff;fill-rule:nonzero}
   ]]>
  </style>
 </defs>
 <g id="Layer_x0020_1">
  <metadata id="CorelCorpID_0Corel-Layer"/>
  <path class="fil0" d="M1.34948 12.8366l0 -6.86152c0,-0.84919 0.256619,-1.54376 0.773095,-2.08452 0.516476,-0.539952 1.18514,-0.808714 2.00843,-0.808714 0.976286,0 1.72833,0.449286 2.25371,1.34705 0.318952,-0.483286 0.664619,-0.830571 1.03052,-1.03781 0.369143,-0.207238 0.821667,-0.309238 1.36162,-0.309238 0.854048,0 1.50895,0.268762 1.96552,0.808714 0.454952,0.540762 0.683238,1.31629 0.683238,2.32981l0 6.61624 -2.82929 0 0 -6.19205c0,-0.307619 -0.0242857,-0.51 -0.0744762,-0.609571 -0.0469524,-0.100381 -0.147333,-0.149762 -0.297095,-0.149762 -0.278476,0 -0.418524,0.238 -0.418524,0.711571l0 6.23981 -2.8301 0 0 -6.19205c0,-0.302762 -0.0259048,-0.505143 -0.0760952,-0.607143 -0.052619,-0.10281 -0.15219,-0.15219 -0.301952,-0.15219 -0.278476,0 -0.419333,0.251762 -0.419333,0.759333l0 6.19205 -2.82929 0z"/>
  <path id="1" class="fil0" d="M18.2159 7.02262l0 2.12014 -1.84976 0c-0.249333,0 -0.428238,0.0380476 -0.532667,0.112524 -0.105238,0.0736667 -0.157048,0.197524 -0.157048,0.37319 0,0.199952 0.0518095,0.331095 0.159476,0.395048 0.106857,0.0623333 0.325429,0.0930952 0.656524,0.0930952l1.904 0 0 2.72 -2.22538 0c-1.04429,0 -1.8441,-0.250143 -2.39619,-0.749619 -0.554524,-0.499476 -0.830571,-1.22076 -0.830571,-2.16548l0 -3.72948c0,-0.911524 0.261476,-1.61824 0.78281,-2.12014 0.523762,-0.502714 1.25881,-0.752048 2.20595,-0.752048l2.46338 0 0 2.73214 -1.80605 0c-0.488143,0 -0.733429,0.159476 -0.733429,0.476 0,0.185381 0.0574762,0.314095 0.174048,0.385333 0.116571,0.0736667 0.32381,0.109286 0.620905,0.109286l1.564 0z"/>
  <path id="12" class="fil0" d="M22.8512 5.87795l0 6.95867 -2.82929 0 0 -9.51676 3.63395 0c1.10662,0 1.9631,0.273619 2.57267,0.823286 0.678381,0.613619 1.01838,1.39238 1.01838,2.33467 0,0.963333 -0.420952,1.77286 -1.26124,2.43424l1.63038 3.92457 -2.97014 0 -1.37295 -3.06729 0 -2.44719 0.223429 0c0.595,0 0.892095,-0.256619 0.892095,-0.768238 0,-0.450095 -0.344857,-0.675952 -1.03214,-0.675952l-0.505143 0z"/>
  <path id="123" class="fil0" d="M32.0142 8.06043l0 2.51033 -0.81681 0 0 2.26586 -2.82929 0 0 -6.052c0,-1.17057 0.318952,-2.0821 0.959286,-2.72971 0.637095,-0.650048 1.53729,-0.973048 2.69329,-0.973048 1.11633,0 1.94205,0.294667 2.47552,0.882381 0.535095,0.587714 0.802238,1.49519 0.802238,2.72243l0 6.14995 -2.8301 0 0 -5.96133c0,-0.371571 -0.0453333,-0.630619 -0.132762,-0.773905 -0.0882381,-0.144905 -0.245286,-0.216143 -0.474381,-0.216143 -0.442,0 -0.66381,0.330286 -0.66381,0.990048l0 1.18514 0.81681 0z"/>
  <path id="1234" class="fil0" d="M40.1103 9.5451l0 -2.49657c0.570714,0 0.856476,-0.218571 0.856476,-0.654095 0,-0.399905 -0.219381,-0.599857 -0.656524,-0.599857 -0.440381,0 -0.66219,0.273619 -0.66219,0.823286l0 6.21876 -2.82929 0 0 -5.92571c0,-0.614429 0.0615238,-1.11876 0.185381,-1.51138 0.121429,-0.392619 0.333524,-0.759333 0.630619,-1.0969 0.333524,-0.376429 0.752048,-0.673524 1.25395,-0.892905 0.502714,-0.218571 1.02162,-0.327857 1.55429,-0.327857 0.969,0 1.78014,0.325429 2.43748,0.975476 0.658952,0.651667 0.987619,1.45876 0.987619,2.42048 0,0.935 -0.295476,1.6919 -0.885619,2.27233 -0.539952,0.535905 -1.3519,0.802238 -2.4391,0.802238l-0.433095 -0.00728571z"/>
  <polygon id="12345" class="fil0" points="47.868,3.31986 47.868,12.8366 45.0387,12.8366 45.0387,3.31986 "/>
  <path id="123456" class="fil0" d="M58.4185 7.02262l0 2.12014 -1.84976 0c-0.249333,0 -0.428238,0.0380476 -0.532667,0.112524 -0.105238,0.0736667 -0.157048,0.197524 -0.157048,0.37319 0,0.199952 0.0518095,0.331095 0.159476,0.395048 0.106857,0.0623333 0.325429,0.0930952 0.656524,0.0930952l1.904 0 0 2.72 -2.22538 0c-1.04429,0 -1.8441,-0.250143 -2.39619,-0.749619 -0.554524,-0.499476 -0.830571,-1.22076 -0.830571,-2.16548l0 -3.72948c0,-0.911524 0.261476,-1.61824 0.78281,-2.12014 0.523762,-0.502714 1.25881,-0.752048 2.20595,-0.752048l2.46338 0 0 2.73214 -1.80605 0c-0.488143,0 -0.733429,0.159476 -0.733429,0.476 0,0.185381 0.0574762,0.314095 0.174048,0.385333 0.116571,0.0736667 0.32381,0.109286 0.620905,0.109286l1.564 0z"/>
  <path id="1234567" class="fil0" d="M63.0538 6.052l0 6.78462 -2.82929 0 0 -9.51676 3.689 0c1.61824,0 2.88433,0.365905 3.80071,1.10176 1.08719,0.878333 1.62957,2.06995 1.62957,3.57648 0,1.44014 -0.463857,2.61557 -1.394,3.5271 -0.928524,0.911524 -2.12581,1.36648 -3.59186,1.36648 -0.17081,0 -0.451714,-0.00971429 -0.841905,-0.0267143l0 -2.7961 0.451714 0c1.64981,0 2.47552,-0.690524 2.47552,-2.07076 0,-1.29686 -0.811952,-1.9461 -2.43262,-1.9461l-0.956857 0z"/>
  <path id="12345678" class="fil0" d="M77.3646 3.31986l0 6.171c0,1.08719 -0.32381,1.95581 -0.973857,2.60829 -0.64681,0.649238 -1.51057,0.975476 -2.58886,0.975476 -1.07586,0 -1.89671,-0.316524 -2.46581,-0.949571 -0.568286,-0.630619 -0.854048,-1.53971 -0.854048,-2.72486l0 -6.08033 2.82929 0 0 6.07305c0,0.580429 0.207238,0.871048 0.621714,0.871048 0.401524,0 0.601476,-0.290619 0.601476,-0.871048l0 -6.07305 2.8301 0z"/>
  <path id="123456789" class="fil0" d="M85.7512 9.5451l0 -2.49657c0.570714,0 0.856476,-0.218571 0.856476,-0.654095 0,-0.399905 -0.219381,-0.599857 -0.656524,-0.599857 -0.440381,0 -0.66219,0.273619 -0.66219,0.823286l0 6.21876 -2.82929 0 0 -5.92571c0,-0.614429 0.0615238,-1.11876 0.185381,-1.51138 0.121429,-0.392619 0.333524,-0.759333 0.630619,-1.0969 0.333524,-0.376429 0.752048,-0.673524 1.25395,-0.892905 0.502714,-0.218571 1.02162,-0.327857 1.55429,-0.327857 0.969,0 1.78014,0.325429 2.43748,0.975476 0.658952,0.651667 0.987619,1.45876 0.987619,2.42048 0,0.935 -0.295476,1.6919 -0.885619,2.27233 -0.539952,0.535905 -1.3519,0.802238 -2.4391,0.802238l-0.433095 -0.00728571z"/>
  <path id="12345678910" class="fil0" d="M94.1306 8.06043l0 2.51033 -0.81681 0 0 2.26586 -2.82929 0 0 -6.052c0,-1.17057 0.318952,-2.0821 0.959286,-2.72971 0.637095,-0.650048 1.53729,-0.973048 2.69329,-0.973048 1.11633,0 1.94205,0.294667 2.47552,0.882381 0.535095,0.587714 0.802238,1.49519 0.802238,2.72243l0 6.14995 -2.8301 0 0 -5.96133c0,-0.371571 -0.0453333,-0.630619 -0.132762,-0.773905 -0.0882381,-0.144905 -0.245286,-0.216143 -0.474381,-0.216143 -0.442,0 -0.66381,0.330286 -0.66381,0.990048l0 1.18514 0.81681 0z"/>
  <path id="1234567891011" class="fil0" d="M101.96 5.87795l0 6.95867 -2.82929 0 0 -9.51676 3.63395 0c1.10662,0 1.9631,0.273619 2.57267,0.823286 0.678381,0.613619 1.01838,1.39238 1.01838,2.33467 0,0.963333 -0.420952,1.77286 -1.26124,2.43424l1.63038 3.92457 -2.97014 0 -1.37295 -3.06729 0 -2.44719 0.223429 0c0.595,0 0.892095,-0.256619 0.892095,-0.768238 0,-0.450095 -0.344857,-0.675952 -1.03214,-0.675952l-0.505143 0z"/>
  <path id="123456789101112" class="fil0" d="M115.934 3.31986l-2.51114 4.31476 2.49657 5.202 -3.179 0 -2.15414 -5.25705 2.4391 -4.25971 2.90862 0zm-5.43352 0l0 9.51676 -2.82929 0 0 -9.51676 2.82929 0z"/>
 </g>
</svg>
