<?xml version="1.0" encoding="utf-8"?>
<!-- Generator: Adobe Illustrator 25.2.3, SVG Export Plug-In . SVG Version: 6.00 Build 0)  -->
<svg version="1.1" id="Layer_1" xmlns="http://www.w3.org/2000/svg" xmlns:xlink="http://www.w3.org/1999/xlink" x="0px" y="0px"
	 viewBox="0 0 118.7 13.3" style="enable-background:new 0 0 118.7 13.3;" xml:space="preserve">
<style type="text/css">
	.st0{fill:#FFFFFF;}
</style>
<g id="Layer_x0020_1">
	<path class="st0" d="M2,11.2V4.3c0-0.8,0.3-1.5,0.8-2.1c0.5-0.5,1.2-0.8,2-0.8c1,0,1.7,0.4,2.3,1.3c0.3-0.5,0.7-0.8,1-1
		c0.4-0.2,0.8-0.3,1.4-0.3c0.9,0,1.5,0.3,2,0.8c0.5,0.5,0.7,1.3,0.7,2.3v6.6H9.3V5c0-0.3,0-0.5-0.1-0.6c0-0.1-0.1-0.1-0.3-0.1
		c-0.3,0-0.4,0.2-0.4,0.7v6.2H5.6V5c0-0.3,0-0.5-0.1-0.6C5.5,4.3,5.4,4.2,5.3,4.2C5,4.2,4.8,4.5,4.8,5v6.2L2,11.2L2,11.2z"/>
	<path id="_x31_" class="st0" d="M18.9,5.4v2.1H17c-0.2,0-0.4,0-0.5,0.1c-0.1,0.1-0.2,0.2-0.2,0.4c0,0.2,0.1,0.3,0.2,0.4
		c0.1,0.1,0.3,0.1,0.7,0.1h1.9v2.7h-2.2c-1,0-1.8-0.3-2.4-0.7c-0.6-0.5-0.8-1.2-0.8-2.2V4.5c0-0.9,0.3-1.6,0.8-2.1
		c0.5-0.5,1.3-0.8,2.2-0.8h2.5v2.7h-1.8c-0.5,0-0.7,0.2-0.7,0.5c0,0.2,0.1,0.3,0.2,0.4c0.1,0.1,0.3,0.1,0.6,0.1L18.9,5.4L18.9,5.4z"
		/>
	<path id="_x31_2" class="st0" d="M23.5,4.2v7h-2.8V1.7h3.6c1.1,0,2,0.3,2.6,0.8c0.7,0.6,1,1.4,1,2.3c0,1-0.4,1.8-1.3,2.4l1.6,3.9
		h-3l-1.4-3.1V5.7h0.2c0.6,0,0.9-0.3,0.9-0.8c0-0.5-0.3-0.7-1-0.7C24,4.2,23.5,4.2,23.5,4.2z"/>
	<path id="_x31_23" class="st0" d="M32.7,6.4v2.5h-0.8v2.3H29V5.1C29,4,29.4,3,30,2.4c0.6-0.7,1.5-1,2.7-1c1.1,0,1.9,0.3,2.5,0.9
		C35.7,2.9,36,3.8,36,5v6.1h-2.8v-6c0-0.4,0-0.6-0.1-0.8c-0.1-0.1-0.2-0.2-0.5-0.2c-0.4,0-0.7,0.3-0.7,1v1.2L32.7,6.4L32.7,6.4z"/>
	<path id="_x31_234" class="st0" d="M40.8,7.9V5.4c0.6,0,0.9-0.2,0.9-0.7c0-0.4-0.2-0.6-0.7-0.6c-0.4,0-0.7,0.3-0.7,0.8v6.2h-2.8
		V5.3c0-0.6,0.1-1.1,0.2-1.5C37.8,3.4,38,3,38.3,2.6c0.3-0.4,0.8-0.7,1.3-0.9c0.5-0.2,1-0.3,1.6-0.3c1,0,1.8,0.3,2.4,1
		c0.7,0.7,1,1.5,1,2.4c0,0.9-0.3,1.7-0.9,2.3c-0.5,0.5-1.4,0.8-2.4,0.8L40.8,7.9L40.8,7.9z"/>
	<polygon id="_x31_2345" class="st0" points="48.5,1.7 48.5,11.2 45.7,11.2 45.7,1.7 	"/>
	<path id="_x31_23456" class="st0" d="M59.1,5.4v2.1h-1.8c-0.2,0-0.4,0-0.5,0.1c-0.1,0.1-0.2,0.2-0.2,0.4c0,0.2,0.1,0.3,0.2,0.4
		c0.1,0.1,0.3,0.1,0.7,0.1h1.9v2.7H57c-1,0-1.8-0.3-2.4-0.7c-0.6-0.5-0.8-1.2-0.8-2.2V4.5c0-0.9,0.3-1.6,0.8-2.1
		c0.5-0.5,1.3-0.8,2.2-0.8h2.5v2.7h-1.8c-0.5,0-0.7,0.2-0.7,0.5c0,0.2,0.1,0.3,0.2,0.4c0.1,0.1,0.3,0.1,0.6,0.1L59.1,5.4L59.1,5.4z"
		/>
	<path id="_x31_234567" class="st0" d="M63.7,4.4v6.8h-2.8V1.7h3.7c1.6,0,2.9,0.4,3.8,1.1C69.5,3.6,70,4.8,70,6.3
		c0,1.4-0.5,2.6-1.4,3.5c-0.9,0.9-2.1,1.4-3.6,1.4c-0.2,0-0.5,0-0.8,0V8.4h0.5c1.6,0,2.5-0.7,2.5-2.1c0-1.3-0.8-1.9-2.4-1.9
		L63.7,4.4L63.7,4.4z"/>
	<path id="_x31_2345678" class="st0" d="M78,1.7v6.2c0,1.1-0.3,2-1,2.6c-0.6,0.6-1.5,1-2.6,1c-1.1,0-1.9-0.3-2.5-0.9
		c-0.6-0.6-0.9-1.5-0.9-2.7V1.7H74v6.1c0,0.6,0.2,0.9,0.6,0.9c0.4,0,0.6-0.3,0.6-0.9V1.7C75.2,1.7,78,1.7,78,1.7z"/>
	<path id="_x31_23456789" class="st0" d="M86.4,7.9V5.4c0.6,0,0.9-0.2,0.9-0.7c0-0.4-0.2-0.6-0.7-0.6C86.2,4.1,86,4.4,86,5v6.2h-2.8
		V5.3c0-0.6,0.1-1.1,0.2-1.5c0.1-0.4,0.3-0.8,0.6-1.1c0.3-0.4,0.8-0.7,1.3-0.9c0.5-0.2,1-0.3,1.6-0.3c1,0,1.8,0.3,2.4,1
		c0.7,0.7,1,1.5,1,2.4c0,0.9-0.3,1.7-0.9,2.3c-0.5,0.5-1.4,0.8-2.4,0.8L86.4,7.9L86.4,7.9z"/>
	<path id="_x31_2345678910" class="st0" d="M94.8,6.4v2.5H94v2.3h-2.8V5.1c0-1.2,0.3-2.1,1-2.7c0.6-0.7,1.5-1,2.7-1
		c1.1,0,1.9,0.3,2.5,0.9c0.5,0.6,0.8,1.5,0.8,2.7v6.1h-2.8v-6c0-0.4,0-0.6-0.1-0.8c-0.1-0.1-0.2-0.2-0.5-0.2c-0.4,0-0.7,0.3-0.7,1
		v1.2C94,6.4,94.8,6.4,94.8,6.4z"/>
	<path id="_x31_234567891011" class="st0" d="M102.6,4.2v7h-2.8V1.7h3.6c1.1,0,2,0.3,2.6,0.8c0.7,0.6,1,1.4,1,2.3
		c0,1-0.4,1.8-1.3,2.4l1.6,3.9h-3L103,8.1V5.7h0.2c0.6,0,0.9-0.3,0.9-0.8c0-0.5-0.3-0.7-1-0.7C103.1,4.2,102.6,4.2,102.6,4.2z"/>
	<path id="_x31_23456789101112" class="st0" d="M116.6,1.7L114.1,6l2.5,5.2h-3.2l-2.2-5.3l2.4-4.3L116.6,1.7L116.6,1.7z M111.2,1.7
		v9.5h-2.8V1.7C108.3,1.7,111.2,1.7,111.2,1.7z"/>
</g>
</svg>
