<?xml version="1.0" encoding="utf-8"?>
<!-- Generator: Adobe Illustrator 25.2.3, SVG Export Plug-In . SVG Version: 6.00 Build 0)  -->
<svg version="1.1" id="Layer_1" xmlns="http://www.w3.org/2000/svg" xmlns:xlink="http://www.w3.org/1999/xlink" x="0px" y="0px"
	 viewBox="0 0 173.6 22.4" style="enable-background:new 0 0 173.6 22.4;" xml:space="preserve">
<style type="text/css">
	.st0{fill:#FFFFFF;}
</style>
<path class="st0" d="M15.4,7.2v12.6H10V2.1h6.7c3,0,5.3,0.7,7,2.1c2.1,1.6,3,4,3,6.7c0,2.6-0.9,4.9-2.6,6.5c-1.6,1.6-4,2.6-6.7,2.6
	c-0.2,0-0.9,0-1.6,0v-5.1h0.9c3,0,4.6-1.2,4.6-4c0-2.3-1.4-3.7-4.4-3.7C17,7.2,15.4,7.2,15.4,7.2z"/>
<path class="st0" d="M38.9,8.8v4h-3.5c-0.5,0-0.7,0-0.9,0.2c-0.2,0.2-0.2,0.5-0.2,0.7c0,0.5,0,0.7,0.2,0.7c0.2,0.2,0.7,0.2,1.2,0.2
	h3.5v5.1h-4.2c-1.9,0-3.5-0.5-4.4-1.4c-0.9-0.9-1.6-2.3-1.6-4v-7c0-1.6,0.5-3,1.4-4c0.9-0.9,2.3-1.4,4.2-1.4h4.6v5.1h-3.3
	c-0.9,0-1.4,0.2-1.4,0.9c0,0.2,0,0.7,0.2,0.7c0.2,0.2,0.7,0.2,1.2,0.2h3V8.8z"/>
<path class="st0" d="M50.5,2.1v5.1C50,7,49.8,7,49.5,7c-0.5,0-0.7,0.2-0.9,0.5c-0.2,0.2-0.5,0.7-0.5,1.2c0,0.5,0.2,0.7,0.5,1.4
	l0.5,0.7c0.7,1.2,1.2,2.6,1.2,3.7c0,1.6-0.7,3.3-1.9,4.4c-1.2,1.2-2.8,1.9-4.4,1.9c-0.9,0-1.6-0.2-2.6-0.7v-5.1
	c0.5,0.2,0.9,0.5,1.4,0.5s0.9-0.2,1.2-0.5s0.5-0.7,0.5-0.9c0-0.2-0.2-0.9-0.7-1.6c-0.7-1.4-1.2-2.8-1.2-4.2c0-1.6,0.7-3,1.9-4.2
	c1.2-1.2,2.6-1.9,4.2-1.9C49.1,1.6,49.8,1.9,50.5,2.1z"/>
<path class="st0" d="M59.5,10.9v4.6h-1.6v4.2h-5.3V8.6c0-2.1,0.7-4,1.9-5.1c1.2-1.2,2.8-1.9,4.9-1.9s3.5,0.5,4.6,1.6
	c0.9,1.2,1.4,2.8,1.4,5.1v11.4H60V8.6c0-0.7,0-1.2-0.2-1.4s-0.5-0.5-0.9-0.5c-0.9,0-1.2,0.7-1.2,1.9v2.3H59.5z"/>
<path class="st0" d="M83.7,2.1v5.1C83.3,7,83,7,82.8,7c-0.5,0-0.7,0.2-0.9,0.5c-0.2,0.2-0.5,0.7-0.5,1.2c0,0.5,0.2,0.7,0.5,1.4
	l0.5,0.7c0.7,1.2,1.2,2.6,1.2,3.7c0,1.6-0.7,3.3-1.9,4.4c-1.2,1.2-2.8,1.4-4.6,1.4c-0.9,0-1.6-0.2-2.6-0.7v-5.1
	c0.5,0.2,0.9,0.5,1.4,0.5s0.9-0.2,1.2-0.5c0.2-0.2,0.5-0.7,0.5-0.9c0-0.2-0.2-0.9-0.7-1.6c-0.7-1.4-1.2-2.8-1.2-4.2
	c0-1.6,0.7-3,1.9-4.2s2.6-1.9,4.2-1.9C82.3,1.6,83,1.9,83.7,2.1z"/>
<path class="st0" d="M98.8,2.1v11.4c0,2.1-0.7,3.7-1.9,4.9s-2.8,1.9-4.9,1.9s-3.5-0.7-4.6-1.9c-1.2-1.2-1.6-2.8-1.6-5.1V2.1h5.3
	v11.2c0,1.2,0.5,1.6,1.2,1.6c0.7,0,1.2-0.5,1.2-1.6V2.1H98.8z"/>
<path class="st0" d="M101.6,19.8V7c0-1.6,0.5-2.8,1.4-4c0.9-0.9,2.1-1.4,3.7-1.4c1.9,0,3.3,0.9,4.2,2.6c0.7-0.9,1.2-1.6,1.9-1.9
	s1.6-0.5,2.6-0.5c1.6,0,2.8,0.5,3.7,1.4c0.9,0.9,1.2,2.3,1.2,4.4V20h-5.3V8.1c0-0.5,0-0.9-0.2-1.2c0-0.2-0.2-0.2-0.5-0.2
	c-0.5,0-0.7,0.5-0.7,1.4v11.6h-5.3V8.1c0-0.5,0-0.9-0.2-1.2c0-0.2-0.2-0.2-0.5-0.2c-0.5,0-0.7,0.5-0.7,1.4v11.4h-5.1V19.8z"/>
<path class="st0" d="M123.5,2.1h6.5c3.7,0,5.8,1.4,5.8,4.4c0,1.4-0.7,2.8-1.9,3.7c1.9,0.9,2.8,2.3,2.8,4.4c0,1.6-0.5,2.8-1.6,4
	c-0.5,0.5-1.2,0.7-1.9,0.9c-0.7,0.2-1.4,0.2-2.6,0.2h-0.9v-4.6h0.9c0.5,0,0.9,0,1.2-0.2c0.2-0.2,0.2-0.5,0.2-0.7
	c0-0.5-0.5-0.9-1.4-0.9h-0.9V8.6c0.9,0,1.4-0.2,1.4-0.9c0-0.7-0.5-0.9-1.4-0.9h-0.9v13h-5.3V2.1z"/>
<path class="st0" d="M147.9,8.8v4h-3.5c-0.5,0-0.7,0-0.9,0.2c-0.2,0.2-0.2,0.5-0.2,0.7c0,0.5,0,0.7,0.2,0.7c0.2,0.2,0.7,0.2,1.2,0.2
	h3.5v5.1h-4.2c-1.9,0-3.5-0.5-4.4-1.4c-0.9-0.9-1.6-2.3-1.6-4v-7c0-1.6,0.5-3,1.4-4c0.9-0.9,2.3-1.4,4.2-1.4h4.6v5.1h-3.3
	c-0.9,0-1.4,0.2-1.4,0.9c0,0.2,0,0.7,0.2,0.7c0.2,0.2,0.7,0.2,1.2,0.2h3V8.8z"/>
<path class="st0" d="M156.5,6.7v12.8h-5.3V2.1h6.7c2.1,0,3.7,0.5,4.9,1.6s1.9,2.6,1.9,4.4s-0.7,3.3-2.3,4.4l3,7.2h-5.6l-2.6-5.6V9.5
	h0.5c1.2,0,1.6-0.5,1.6-1.4c0-0.9-0.7-1.2-1.9-1.2h-0.9V6.7z"/>
</svg>
